<svg width="143" height="84" viewBox="0 0 143 84" fill="none" xmlns="http://www.w3.org/2000/svg">
<path d="M75.5852 29.808V35.64H44.3192V0H74.3432V5.832H50.7992V14.634H73.1552V19.926H50.7992V29.808H75.5852Z" fill="black"/>
<path d="M0 48H15.228C21.42 48 25.974 49.638 28.89 52.914C31.806 56.19 33.264 60.456 33.264 65.712C33.264 71.364 31.86 75.774 29.052 78.942C26.28 82.074 21.87 83.64 15.822 83.64H0V48ZM15.66 77.808C19.368 77.808 22.14 76.908 23.976 75.108C25.848 73.308 26.784 70.176 26.784 65.712C26.784 62.04 25.902 59.142 24.138 57.018C22.374 54.894 19.35 53.832 15.066 53.832H6.48V77.808H15.66Z" fill="black"/>
<path d="M51.2312 62.256C54.9392 61.932 57.7112 60.996 59.5472 59.448C61.3832 57.864 62.3012 56.028 62.3012 53.94C62.3012 53.436 62.2292 53.04 62.0852 52.752H61.9232C61.7792 53.724 61.3832 54.462 60.7352 54.966C60.0872 55.47 59.2772 55.722 58.3052 55.722C57.1172 55.722 56.1272 55.38 55.3352 54.696C54.5792 53.976 54.2012 52.968 54.2012 51.672C54.2012 50.34 54.6872 49.332 55.6592 48.648C56.6672 47.928 57.9992 47.568 59.6552 47.568C61.9232 47.568 63.7052 48.198 65.0012 49.458C66.2972 50.682 66.9452 52.266 66.9452 54.21C66.9452 56.514 66.3152 58.602 65.0552 60.474C63.8312 62.346 62.0312 63.858 59.6552 65.01C57.3152 66.162 54.5072 66.846 51.2312 67.062V62.256Z" fill="black"/>
<path d="M112.398 75.324H94.4165L91.2845 83.64H84.4265L97.9265 48H108.834L122.334 83.64H115.53L112.398 75.324ZM110.4 70.032L104.46 54.48H102.3L96.4145 70.032H110.4Z" fill="black"/>
</svg>
